# xmcd CD database file
#
# Track frame offsets:
#	150
#	11053
#	30095
#	46843
#	57505
#	69594
#	86276
#	102541
#	115331
#	125827
#	139047
#	152401
#	164596
#	176936
#	196592
#
# Disc length: 2837 seconds
#
# Revision: 0
# Processed by: cddbd v1.5.1PL2 Copyright (c) Steve Scherf et al.
# Submitted via: CDex 1.51
#
DISCID=c70b130f
DTITLE=Superstars of Country - Like a Song [CDTwo)
DYEAR=1900
DGENRE=Country
TTITLE0=Ricky Skaggs - Uncle Pen
TTITLE1=Marty Robbins - El Paso City
TTITLE2=Keith Whitley - When You Say Nothing at All
TTITLE3=Johnny Cash - Daddy Sang Bass
TTITLE4=Dolly Parton - Jolene
TTITLE5=Ray Price - I Won't Mention It Again
TTITLE6=Alabama - Feels So Right
TTITLE7=Waylon Jennings and Willie Nelson - Just to Satisfy You
TTITLE8=Connie Smith - Once a Day
TTITLE9=David Houston - Almost Persuaded
TTITLE10=Waylon Jennings - Amanda
TTITLE11=Eddy Arnold - I Want to Go With You
TTITLE12=George Jones - The Door
TTITLE13=Willie Nelson - Georgia on My Mind
TTITLE14=Ronnie Milsap - It Was Almost Like a Song
EXTD=
EXTT0=
EXTT1=
EXTT2=
EXTT3=
EXTT4=
EXTT5=
EXTT6=
EXTT7=
EXTT8=
EXTT9=
EXTT10=
EXTT11=
EXTT12=
EXTT13=
EXTT14=
PLAYORDER=
